<svg width="30" height="30" viewBox="0 0 30 30" fill="none" xmlns="http://www.w3.org/2000/svg">
<path d="M18.912 20.13C19.264 20.13 19.528 20.2107 19.704 20.372C19.88 20.5333 19.968 20.7607 19.968 21.054C19.968 21.6847 19.616 22 18.912 22H11.564C10.8453 22 10.486 21.6847 10.486 21.054C10.486 20.7607 10.574 20.5333 10.75 20.372C10.9407 20.2107 11.212 20.13 11.564 20.13H14.094V9.152L11.828 10.582C11.6813 10.67 11.5347 10.714 11.388 10.714C11.1387 10.714 10.9187 10.604 10.728 10.384C10.552 10.164 10.464 9.91467 10.464 9.636C10.464 9.29867 10.6107 9.03467 10.904 8.844L14.292 6.688C14.6293 6.48267 14.952 6.38 15.26 6.38C15.5827 6.38 15.8467 6.48267 16.052 6.688C16.2573 6.89333 16.36 7.172 16.36 7.524V20.13H18.912Z" fill="#54969B"/>
</svg>
