<svg width="30" height="30" viewBox="0 0 30 30" fill="none" xmlns="http://www.w3.org/2000/svg">
<path d="M19.066 20.13C19.418 20.13 19.682 20.2107 19.858 20.372C20.0487 20.5333 20.144 20.7607 20.144 21.054C20.144 21.6847 19.7847 22 19.066 22H10.574C10.2513 22 9.99467 21.912 9.804 21.736C9.628 21.5453 9.54 21.3107 9.54 21.032C9.54 20.6947 9.672 20.3867 9.936 20.108L15.106 14.454C15.7953 13.706 16.294 13.024 16.602 12.408C16.91 11.792 17.064 11.1833 17.064 10.582C17.064 9.80467 16.8367 9.21067 16.382 8.8C15.942 8.37467 15.3113 8.162 14.49 8.162C13.2433 8.162 12.004 8.63867 10.772 9.592C10.6107 9.69467 10.4713 9.77533 10.354 9.834C10.2513 9.878 10.1413 9.9 10.024 9.9C9.81867 9.9 9.64267 9.80467 9.496 9.614C9.34933 9.42333 9.276 9.196 9.276 8.932C9.276 8.56533 9.42267 8.272 9.716 8.052C10.332 7.524 11.0727 7.106 11.938 6.798C12.8033 6.47533 13.676 6.314 14.556 6.314C16.008 6.314 17.1593 6.688 18.01 7.436C18.8753 8.16933 19.308 9.16667 19.308 10.428C19.308 11.3227 19.11 12.1733 18.714 12.98C18.3327 13.7867 17.6873 14.6887 16.778 15.686L12.62 20.13H19.066Z" fill="#54969B"/>
</svg>
