<svg width="30" height="30" viewBox="0 0 30 30" fill="none" xmlns="http://www.w3.org/2000/svg">
<path d="M11.0603 14.036C11.9989 14.3 12.7103 14.7547 13.1943 15.4C13.6783 16.0307 13.9203 16.83 13.9203 17.798C13.9203 19.1473 13.4436 20.2107 12.4903 20.988C11.5516 21.7653 10.2756 22.154 8.66228 22.154C7.70895 22.154 6.79228 22 5.91228 21.692C5.04695 21.384 4.31361 20.9587 3.71228 20.416C3.41895 20.1813 3.27228 19.888 3.27228 19.536C3.27228 19.272 3.34561 19.052 3.49228 18.876C3.63895 18.6853 3.81495 18.59 4.02028 18.59C4.24028 18.59 4.48961 18.6853 4.76828 18.876C5.39895 19.3453 6.01495 19.7047 6.61628 19.954C7.23228 20.1887 7.89228 20.306 8.59628 20.306C10.6789 20.306 11.7203 19.4187 11.7203 17.644C11.7203 16.7787 11.4416 16.1333 10.8843 15.708C10.3416 15.268 9.51295 15.048 8.39828 15.048H7.18828C6.90961 15.048 6.68961 14.96 6.52828 14.784C6.36695 14.5933 6.28628 14.3733 6.28628 14.124C6.28628 13.8893 6.36695 13.684 6.52828 13.508C6.68961 13.3173 6.90961 13.222 7.18828 13.222H8.04628C9.11695 13.222 9.93095 13.002 10.4883 12.562C11.0603 12.1073 11.3463 11.4473 11.3463 10.582C11.3463 9.81933 11.1116 9.22533 10.6423 8.8C10.1876 8.37467 9.54228 8.162 8.70628 8.162C7.47428 8.162 6.24228 8.63867 5.01028 9.592C4.73161 9.78267 4.48228 9.878 4.26228 9.878C4.05695 9.878 3.88095 9.79 3.73428 9.614C3.58761 9.42333 3.51428 9.196 3.51428 8.932C3.51428 8.58 3.66095 8.28667 3.95428 8.052C4.55561 7.50933 5.28161 7.084 6.13228 6.776C6.99761 6.468 7.88495 6.314 8.79428 6.314C10.2463 6.314 11.3976 6.67333 12.2483 7.392C13.1136 8.11067 13.5463 9.086 13.5463 10.318C13.5463 11.198 13.3263 11.968 12.8863 12.628C12.4609 13.2733 11.8523 13.7427 11.0603 14.036ZM18.3557 22.11C18.0184 22.11 17.747 22.0073 17.5417 21.802C17.3364 21.582 17.2337 21.3033 17.2337 20.966V7.59C17.2337 7.25267 17.329 6.98867 17.5197 6.798C17.725 6.59267 18.0037 6.49 18.3557 6.49H26.2317C26.9357 6.49 27.2877 6.798 27.2877 7.414C27.2877 8.03 26.9357 8.338 26.2317 8.338H19.4777V13.2H25.7917C26.4957 13.2 26.8477 13.508 26.8477 14.124C26.8477 14.74 26.4957 15.048 25.7917 15.048H19.4777V20.966C19.4777 21.318 19.375 21.5967 19.1697 21.802C18.979 22.0073 18.7077 22.11 18.3557 22.11Z" fill="#54969B"/>
</svg>
