<svg width="30" height="30" viewBox="0 0 30 30" fill="none" xmlns="http://www.w3.org/2000/svg">
<path d="M10.1316 14.036C11.0702 14.3 11.7816 14.7547 12.2656 15.4C12.7496 16.0307 12.9916 16.83 12.9916 17.798C12.9916 19.1473 12.5149 20.2107 11.5616 20.988C10.6229 21.7653 9.3469 22.154 7.73357 22.154C6.78024 22.154 5.86357 22 4.98357 21.692C4.11824 21.384 3.3849 20.9587 2.78357 20.416C2.49024 20.1813 2.34357 19.888 2.34357 19.536C2.34357 19.272 2.4169 19.052 2.56357 18.876C2.71024 18.6853 2.88624 18.59 3.09157 18.59C3.31157 18.59 3.5609 18.6853 3.83957 18.876C4.47024 19.3453 5.08624 19.7047 5.68757 19.954C6.30357 20.1887 6.96357 20.306 7.66757 20.306C9.75024 20.306 10.7916 19.4187 10.7916 17.644C10.7916 16.7787 10.5129 16.1333 9.95557 15.708C9.4129 15.268 8.58424 15.048 7.46957 15.048H6.25957C5.9809 15.048 5.7609 14.96 5.59957 14.784C5.43824 14.5933 5.35757 14.3733 5.35757 14.124C5.35757 13.8893 5.43824 13.684 5.59957 13.508C5.7609 13.3173 5.9809 13.222 6.25957 13.222H7.11757C8.18824 13.222 9.00224 13.002 9.55957 12.562C10.1316 12.1073 10.4176 11.4473 10.4176 10.582C10.4176 9.81933 10.1829 9.22533 9.71357 8.8C9.2589 8.37467 8.61357 8.162 7.77757 8.162C6.54557 8.162 5.31357 8.63867 4.08157 9.592C3.8029 9.78267 3.55357 9.878 3.33357 9.878C3.12824 9.878 2.95224 9.79 2.80557 9.614C2.6589 9.42333 2.58557 9.196 2.58557 8.932C2.58557 8.58 2.73224 8.28667 3.02557 8.052C3.6269 7.50933 4.3529 7.084 5.20357 6.776C6.0689 6.468 6.95624 6.314 7.86557 6.314C9.31757 6.314 10.4689 6.67333 11.3196 7.392C12.1849 8.11067 12.6176 9.086 12.6176 10.318C12.6176 11.198 12.3976 11.968 11.9576 12.628C11.5322 13.2733 10.9236 13.7427 10.1316 14.036ZM28.405 20.592C28.537 20.7827 28.603 20.988 28.603 21.208C28.603 21.472 28.493 21.6993 28.273 21.89C28.0676 22.066 27.8256 22.154 27.547 22.154C27.1363 22.154 26.8063 21.9707 26.557 21.604L23.609 17.028C23.2716 16.5 22.9123 16.1333 22.531 15.928C22.1496 15.708 21.651 15.598 21.035 15.598H18.549V20.966C18.549 21.318 18.4463 21.5967 18.241 21.802C18.0503 22.0073 17.779 22.11 17.427 22.11C17.0896 22.11 16.8183 22.0073 16.613 21.802C16.4076 21.5967 16.305 21.318 16.305 20.966V7.59C16.305 7.25267 16.4003 6.98867 16.591 6.798C16.7963 6.59267 17.075 6.49 17.427 6.49H22.905C24.621 6.49 25.9263 6.87133 26.821 7.634C27.7303 8.39667 28.185 9.51133 28.185 10.978C28.185 12.1953 27.8403 13.1853 27.151 13.948C26.4616 14.696 25.479 15.1727 24.203 15.378C24.5843 15.4807 24.929 15.664 25.237 15.928C25.545 16.192 25.8456 16.5587 26.139 17.028L28.405 20.592ZM22.641 13.772C23.785 13.772 24.6283 13.552 25.171 13.112C25.7283 12.6573 26.007 11.9607 26.007 11.022C26.007 10.0833 25.7356 9.40133 25.193 8.976C24.6503 8.536 23.7996 8.316 22.641 8.316H18.527V13.772H22.641Z" fill="#54969B"/>
</svg>
