<svg width="30" height="30" viewBox="0 0 30 30" fill="none" xmlns="http://www.w3.org/2000/svg">
<path d="M20.4567 18.2331C21.6937 16.5445 22.4202 14.4632 22.4202 12.2101C22.4202 6.57 17.8502 2 12.2101 2C6.57 2 2 6.57 2 12.2101C2 17.8502 6.57 22.4202 12.2101 22.4202C14.4632 22.4202 16.5445 21.6888 18.2331 20.4567L23.667 25.8857L24.7764 27L27 24.7764L25.8906 23.667L20.4567 18.2331ZM13.3882 7.10505V8.28313V11.032H16.1371H17.3151V13.3882H16.1371H13.3882V16.1371V17.3151H11.032V16.1371V13.3882H8.28313H7.10505V11.032H8.28313H11.032V8.28313V7.10505H13.3882Z" fill="#54969B"/>
</svg>
